<svg width="32" height="32" viewBox="0 0 31 32" fill="none" xmlns="http://www.w3.org/2000/svg">
<path fill-rule="evenodd" clip-rule="evenodd" d="M26.1824 0.217621C26.8212 -0.0155747 27.5129 -0.062536 28.1776 0.082433C28.8487 0.228854 29.4637 0.564914 29.9494 1.05066C30.4351 1.53641 30.7712 2.15142 30.9176 2.82258C31.0625 3.48709 31.0155 4.17898 30.7825 4.81758L22.8639 28.5513L22.8634 28.5528C22.6704 29.1364 22.3308 29.6609 21.8768 30.0756C21.4241 30.4893 20.8731 30.7797 20.2763 30.9198C19.6794 31.0653 19.0548 31.0529 18.464 30.8841C17.8736 30.7155 17.3374 30.3964 16.9076 29.9582L12.6595 25.7295L8.19713 28.037C7.84917 28.2169 7.43203 28.1997 7.10007 27.9916C6.76812 27.7838 6.57069 27.4158 6.58086 27.0243L6.7638 19.9703L22.3727 8.63207C22.9915 8.18262 23.1288 7.31664 22.6793 6.69789C22.2297 6.07911 21.3639 5.94188 20.7451 6.39134L4.87136 17.9219L1.039 14.0895C0.623964 13.6747 0.318018 13.163 0.149417 12.601C-0.0179843 12.043 -0.0451817 11.4524 0.0701397 10.8815C0.18561 10.2578 0.464426 9.67574 0.878261 9.1948C1.29493 8.71055 1.83335 8.34637 2.43788 8.1399L2.44535 8.13735L26.1824 0.217621Z" fill="current"/>
</svg>
